<svg xmlns="http://www.w3.org/2000/svg" xmlns:xlink="http://www.w3.org/1999/xlink" width="248" height="176.778" viewBox="0 0 248 176.778"><defs><filter id="a" x="0" y="0" width="248" height="176.778" filterUnits="userSpaceOnUse"><feOffset dy="3" input="SourceAlpha"/><feGaussianBlur stdDeviation="3" result="b"/><feFlood flood-opacity="0.161"/><feComposite operator="in" in2="b"/><feComposite in="SourceGraphic"/></filter></defs><g transform="translate(-288 -521)"><g transform="matrix(1, 0, 0, 1, 288, 521)" filter="url(#a)"><path d="M7.362,79.963A53.013,53.013,0,0,1,53,0H177a53,53,0,0,1,0,106H128.052q-.55.015-1.162.015c-40.232,0-39.912,41.632-35.3,51.807.295.649.2.956-.226.956C85.561,158.78,17.85,102.633,7.362,79.963Z" transform="translate(9 6)" fill="#fff"/></g><text transform="translate(343 560)" fill="#707070" font-size="25" font-family="SegoeUI-Semibold, Segoe UI" font-weight="600"><tspan x="0" y="27">fF!qXhOlq9!</tspan></text></g></svg>