<svg xmlns="http://www.w3.org/2000/svg" xmlns:xlink="http://www.w3.org/1999/xlink" width="175" height="162.601" viewBox="0 0 175 162.601"><defs><filter id="a" x="0" y="0" width="175" height="162.601" filterUnits="userSpaceOnUse"><feOffset dy="3" input="SourceAlpha"/><feGaussianBlur stdDeviation="3" result="b"/><feFlood flood-opacity="0.161"/><feComposite operator="in" in2="b"/><feComposite in="SourceGraphic"/></filter></defs><g transform="translate(-288 -758)"><g transform="matrix(1, 0, 0, 1, 288, 758)" filter="url(#a)"><path d="M7.659,80.458A53.012,53.012,0,0,1,53,0h51a53.009,53.009,0,0,1,21.559,101.432l-.162.072q-.5.221-1.006.432c-20.7,9.1-40.339,31.481-36.266,41.506.321.79.1,1.159-.589,1.159C80.112,144.6,18.591,101.4,7.659,80.458Z" transform="translate(9 6)" fill="#fff"/></g><text transform="translate(346 787)" fill="#707070" font-size="42" font-family="SegoeUIEmoji, Segoe UI Emoji"><tspan x="0" y="45">😊</tspan></text></g></svg>