<svg xmlns="http://www.w3.org/2000/svg" xmlns:xlink="http://www.w3.org/1999/xlink" width="175" height="162.601" viewBox="0 0 175 162.601"><defs><filter id="a" x="0" y="0" width="175" height="162.601" filterUnits="userSpaceOnUse"><feOffset dy="3" input="SourceAlpha"/><feGaussianBlur stdDeviation="3" result="b"/><feFlood flood-opacity="0.161"/><feComposite operator="in" in2="b"/><feComposite in="SourceGraphic"/></filter></defs><g transform="matrix(1, 0, 0, 1, 0, 0)" filter="url(#a)"><path d="M-380.341-315.542A52.76,52.76,0,0,1-388-343a53,53,0,0,1,53-53h51a53,53,0,0,1,53,53,53.011,53.011,0,0,1-31.441,48.432l-.162.072q-.5.221-1.006.432c-20.7,9.1-40.339,31.481-36.266,41.506.321.79.1,1.159-.589,1.159C-307.888-251.4-369.409-294.6-380.341-315.542Z" transform="translate(397 402)" fill="#fff"/></g></svg>