<svg xmlns="http://www.w3.org/2000/svg" xmlns:xlink="http://www.w3.org/1999/xlink" width="248" height="176.778" viewBox="0 0 248 176.778"><defs><filter id="a" x="0" y="0" width="248" height="176.778" filterUnits="userSpaceOnUse"><feOffset dy="3" input="SourceAlpha"/><feGaussianBlur stdDeviation="3" result="b"/><feFlood flood-opacity="0.161"/><feComposite operator="in" in2="b"/><feComposite in="SourceGraphic"/></filter></defs><g transform="matrix(1, 0, 0, 1, 0, 0)" filter="url(#a)"><path d="M-380.638-316.037A52.752,52.752,0,0,1-388-343a53,53,0,0,1,53-53h124a53,53,0,0,1,53,53,53,53,0,0,1-53,53h-48.949q-.55.015-1.162.015c-40.232,0-39.912,41.632-35.3,51.807.295.649.2.956-.226.956C-302.439-237.22-370.15-293.367-380.638-316.037Z" transform="translate(397 402)" fill="#fff"/></g></svg>